<?xml version="1.0" encoding="UTF-8"?>
<svg id="Layer_1" data-name="Layer 1" xmlns="http://www.w3.org/2000/svg" viewBox="0 0 240.65 420.22">
  <defs>
    <style>
      .cls-1 {
        fill: none;
        stroke-miterlimit: 10;
        stroke-width: 10px;
      }

      .cls-1, .cls-2 {
        stroke: #3499cc;
      }

      .cls-2 {
        fill: #3499cc;
        stroke-miterlimit: 0;
        stroke-width: 0px;
      }
    </style>
  </defs>
  <path class="cls-1" d="M123.04,305.56h30.77c6.56,0,11.92,5.4,11.92,12v12.96c0,6.6-5.37,12-11.92,12H74.91"/>
  <path class="cls-1" d="M63.99,245.05c5.79,6.27,10.92,8.03,19.38,16.36,3.8,3.74,10,13.16,10,18.99"/>
  <path class="cls-1" d="M160.7,255.07c16.39-13.52,32.02-28.19,44.82-45.22,12.59-16.75,22-35.88,26.73-56.34,4.82-20.84,4.58-42.83-1.11-63.48-5.36-19.45-15.71-37.41-29.95-51.71-14.47-14.53-32.84-24.9-52.72-29.91s-42.04-4.42-62.11,1.94c-19.41,6.15-37.03,17.37-50.62,32.55-13.66,15.25-22.97,34.04-27.56,53.96-4.81,20.89-4.32,42.83,2.56,63.19s18.3,37.63,30.22,54.64c2.75,3.93-.83-.52,4.11,5.79"/>
  <path class="cls-1" d="M163.63,253.09s-14.9,10.51-14.9,24.07v30.57"/>
  <rect class="cls-2" x="176.31" y="313.14" width="10" height="10" rx="5" ry="5"/>
  <rect class="cls-2" x="176.31" y="324.43" width="10" height="10" rx="5" ry="5"/>
  <rect class="cls-2" x="43.75" y="222.78" width="20.24" height="20.24" rx="10.12" ry="10.12"/>
  <path class="cls-1" d="M111.29,361.79c-17.92-.23-17.92,.23-17.92,4.08v25.2q0,5.27,16.14,5.27h6.25q13.45,0,13.45-5.27v-25.28"/>
  <path class="cls-1" d="M147.13,365.78l.08,35.12"/>
  <path class="cls-1" d="M129.22,378.83v-13.87c0-1.77,1.44-3.21,2.98-2.95h11.56c2-.27,3.44,1.17,3.44,2.95v13.87c0,1.77-1.44,3.21-3.21,3.21"/>
</svg>